<svg xmlns="http://www.w3.org/2000/svg" xmlns:xlink="http://www.w3.org/1999/xlink" width="460" height="210.436" viewBox="0 0 460 210.436">
  <defs>
    <clipPath id="clip-path">
      <rect id="Rechteck_39" data-name="Rechteck 39" width="119.961" height="119.054"/>
    </clipPath>
    <clipPath id="clip-path-2">
      <rect id="Rechteck_38" data-name="Rechteck 38" width="119.888" height="120.541"/>
    </clipPath>
    <clipPath id="clip-path-3">
      <rect id="Rechteck_35" data-name="Rechteck 35" width="397.754" height="173.711" transform="translate(0 0)"/>
    </clipPath>
  </defs>
  <g id="Pam_Logo" transform="translate(-202.84 -190.66)">
    <g id="Gruppe_58" data-name="Gruppe 58" transform="translate(202.84 190.66)">
      <g id="Gruppe_90" data-name="Gruppe 90">
        <path id="Pfad_23" data-name="Pfad 23" d="M443.523,256.386a23.018,23.018,0,0,0,9.4-1.776,14.588,14.588,0,0,0,6.2-4.894,12.031,12.031,0,0,0,2.2-7.081,10.845,10.845,0,0,0-2.441-7.166,15.479,15.479,0,0,0-5.607-4.1,62.482,62.482,0,0,0-8.314-2.743c-2.526-.725-4.447-1.329-5.74-1.813a9.413,9.413,0,0,1-3.287-1.982,4.135,4.135,0,0,1-1.353-3.118,4.437,4.437,0,0,1,2.03-3.794,10.012,10.012,0,0,1,5.825-1.438,9.447,9.447,0,0,1,6.163,1.861,6.831,6.831,0,0,1,2.526,4.979h9.619a14.415,14.415,0,0,0-5.184-10.924q-4.858-4.006-12.785-4.012a23.383,23.383,0,0,0-9.4,1.776,14.677,14.677,0,0,0-6.284,4.846,11.451,11.451,0,0,0-2.2,6.791,10.8,10.8,0,0,0,2.4,7.335,14.894,14.894,0,0,0,5.692,4.133,77.993,77.993,0,0,0,8.519,2.779,48.186,48.186,0,0,1,7.891,2.779,4.124,4.124,0,0,1,2.489,3.879,4.725,4.725,0,0,1-2.236,4.012,10.877,10.877,0,0,1-6.284,1.559,10.289,10.289,0,0,1-6.453-1.982,6.77,6.77,0,0,1-2.828-4.93h-9.957A13.494,13.494,0,0,0,426.822,249a17.287,17.287,0,0,0,6.876,5.4,23.24,23.24,0,0,0,9.825,1.982m-41.679-.749h9.619V209.161h-9.619Zm4.894-52.651a5.846,5.846,0,0,0,4.3-1.776,6.3,6.3,0,0,0,0-8.773,5.866,5.866,0,0,0-4.3-1.776,6.163,6.163,0,1,0,0,12.326m-14.586,6.163H382.11l-9.45,15.782-10.042-15.782H351.73l15.021,23.625L351.73,255.637h10.042l9.45-15.77,10.042,15.77H392.14L377.119,232.1Zm-59.817,23.2a17.155,17.155,0,0,1-1.982,8.4,13.555,13.555,0,0,1-12.1,7.287,13.381,13.381,0,0,1-6.876-1.9,14,14,0,0,1-5.233-5.523,17.365,17.365,0,0,1-1.982-8.435,16.693,16.693,0,0,1,1.982-8.314,13.64,13.64,0,0,1,5.184-5.317,13.8,13.8,0,0,1,6.912-1.813,13.484,13.484,0,0,1,6.912,1.861,13.8,13.8,0,0,1,5.184,5.4,16.742,16.742,0,0,1,1.994,8.35m-38.041-.169a26.44,26.44,0,0,0,2.912,12.531,21.754,21.754,0,0,0,7.891,8.6,21.551,21.551,0,0,0,20.592.882,18.989,18.989,0,0,0,6.658-5.486v6.912h9.7V209.149h-9.716V215.9a19.276,19.276,0,0,0-6.538-5.353,20.254,20.254,0,0,0-9.571-2.151,21.2,21.2,0,0,0-19.021,11.4,25.589,25.589,0,0,0-2.912,12.386m-22.1-16.277v-6.755h-9.619v46.476h9.619V231.166c0-4.725.967-8.036,2.912-9.957s4.8-2.864,8.556-2.864H286.1v-9.957a16.661,16.661,0,0,0-8.314,1.982,15.168,15.168,0,0,0-5.595,5.535m-31.467,16.277a17.365,17.365,0,0,1-1.982,8.435,13.919,13.919,0,0,1-5.232,5.523,13.521,13.521,0,0,1-6.961,1.9,13.7,13.7,0,0,1-12.108-7.287,18.684,18.684,0,0,1,0-16.749,13.8,13.8,0,0,1,12.108-7.263,14.046,14.046,0,0,1,6.961,1.813,13.67,13.67,0,0,1,5.232,5.317,16.661,16.661,0,0,1,1.982,8.314m-28.265-16.193v-6.828H202.84v68.59h9.619V248.894a20.975,20.975,0,0,0,6.743,5.353,20.132,20.132,0,0,0,9.45,2.151,20.8,20.8,0,0,0,11.093-3.082,21.411,21.411,0,0,0,7.891-8.6,26.818,26.818,0,0,0,2.864-12.531,26.068,26.068,0,0,0-2.864-12.4,21.088,21.088,0,0,0-18.984-11.4,20.382,20.382,0,0,0-9.535,2.2,19.589,19.589,0,0,0-6.658,5.4" transform="translate(-202.84 -190.66)" fill="#a6c5ce"/>
      </g>
      <g id="Gruppe_91" data-name="Gruppe 91" transform="translate(269.467)">
        <path id="Pfad_24" data-name="Pfad 24" d="M605.68,232.351a17.155,17.155,0,0,1-1.982,8.4,13.821,13.821,0,0,1-5.184,5.438,13.646,13.646,0,0,1-6.924,1.861,13.38,13.38,0,0,1-6.876-1.9,14,14,0,0,1-5.233-5.523,17.366,17.366,0,0,1-1.982-8.435,16.7,16.7,0,0,1,1.982-8.314,13.641,13.641,0,0,1,5.184-5.317,13.833,13.833,0,0,1,6.912-1.813,13.527,13.527,0,0,1,6.924,1.861,13.8,13.8,0,0,1,5.184,5.4,16.537,16.537,0,0,1,1.994,8.338m-38.041-.169a26.44,26.44,0,0,0,2.912,12.531,21.841,21.841,0,0,0,7.891,8.6,21.551,21.551,0,0,0,20.592.882,19.145,19.145,0,0,0,6.671-5.486v6.912h9.7V209.149h-9.7V215.9a19.276,19.276,0,0,0-6.538-5.353A20.255,20.255,0,0,0,589.6,208.4a21.2,21.2,0,0,0-19.021,11.4,25.327,25.327,0,0,0-2.937,12.386m-11.976-23.033h-9.619v55.588a4.979,4.979,0,0,1-1.221,3.758c-.81.761-2.211,1.136-4.181,1.136h-3.287v8.1h4.979c4.326,0,7.637-1.027,9.909-3.082s3.42-5.353,3.42-9.909Zm-4.725-6.163a5.846,5.846,0,0,0,4.3-1.776,6.3,6.3,0,0,0,0-8.773,5.846,5.846,0,0,0-4.3-1.776,6.2,6.2,0,0,0-4.386,10.55,5.875,5.875,0,0,0,4.386,1.776m-38.718,5.4a19.209,19.209,0,0,0-7.806,1.607,16.028,16.028,0,0,0-6.03,4.471v-5.317h-9.619v46.476h9.619V229.644q0-6.235,3.166-9.571a11.24,11.24,0,0,1,8.568-3.335,11.1,11.1,0,0,1,8.52,3.335q3.117,3.335,3.118,9.571v25.981h9.534V228.206a22.366,22.366,0,0,0-2.441-10.8,16.1,16.1,0,0,0-6.791-6.743,21.037,21.037,0,0,0-9.837-2.272m-48.337,23.963a17.153,17.153,0,0,1-1.982,8.4,13.6,13.6,0,0,1-12.1,7.3,13.381,13.381,0,0,1-6.876-1.9,14,14,0,0,1-5.232-5.523,17.365,17.365,0,0,1-1.982-8.435,16.693,16.693,0,0,1,1.982-8.314,13.639,13.639,0,0,1,5.184-5.317,13.845,13.845,0,0,1,6.924-1.813,13.485,13.485,0,0,1,6.912,1.861,13.8,13.8,0,0,1,5.184,5.4,16.789,16.789,0,0,1,1.982,8.338m-38.053-.169a26.44,26.44,0,0,0,2.912,12.531,21.842,21.842,0,0,0,7.891,8.6,21.551,21.551,0,0,0,20.592.882,18.991,18.991,0,0,0,6.659-5.486v6.912h9.7V209.149h-9.7V215.9a19.278,19.278,0,0,0-6.538-5.353,20.254,20.254,0,0,0-9.571-2.151,21.2,21.2,0,0,0-19.021,11.4,25.593,25.593,0,0,0-2.924,12.386" transform="translate(-425.83 -190.66)" fill="#2d565b"/>
      </g>
    </g>
    <g id="Gruppe_60" data-name="Gruppe 60" transform="translate(202.852 276.483)">
      <g id="Gruppe_92" data-name="Gruppe 92">
        <path id="Pfad_25" data-name="Pfad 25" d="M647.817,332.023h15.021V267.033H647.817Zm-28.543,0h15.021v-49H619.274Zm7.553-54.089A8.959,8.959,0,0,0,633.2,275.6a7.535,7.535,0,0,0,2.5-5.752,7.623,7.623,0,0,0-2.5-5.837,9.977,9.977,0,0,0-12.822,0,7.641,7.641,0,0,0-2.5,5.837,7.535,7.535,0,0,0,2.5,5.752,9.121,9.121,0,0,0,6.453,2.332m-52.253,24.845a9.742,9.742,0,0,1,3.2-6.236,9.534,9.534,0,0,1,6.368-2.2,9.688,9.688,0,0,1,6.586,2.284,7.745,7.745,0,0,1,2.634,6.151Zm34.162,3.952a25.832,25.832,0,0,0-3.118-12.906,21.427,21.427,0,0,0-8.652-8.519,26.15,26.15,0,0,0-12.64-2.985,26.531,26.531,0,0,0-12.906,3.069,21.616,21.616,0,0,0-8.737,8.785,27.424,27.424,0,0,0-3.118,13.353,27.074,27.074,0,0,0,3.166,13.353,21.878,21.878,0,0,0,8.785,8.785,26.231,26.231,0,0,0,12.821,3.069,25.881,25.881,0,0,0,10.8-2.2,22.16,22.16,0,0,0,8.036-6.066,21.935,21.935,0,0,0,4.435-8.689H591.625c-1.462,3.166-4.072,4.737-7.819,4.737a9.013,9.013,0,0,1-6.368-2.417,10.246,10.246,0,0,1-2.949-6.985h33.981a36.787,36.787,0,0,0,.266-4.387m-68.675-23.709-6.852,34.863-8.338-34.863H508.981l-8.254,35.044-6.936-35.044H478.77l13.353,49h16.507l7.988-31.794,7.722,31.794h16.6l13.256-49Zm-84.747,24.507q0,5.619-3.118,8.87a10.459,10.459,0,0,1-15.2-.048c-2.078-2.2-3.118-5.16-3.118-8.918s1.039-6.695,3.118-8.821a10.567,10.567,0,0,1,15.2.048q3.118,3.245,3.118,8.87m-36.7-.1a29.616,29.616,0,0,0,2.852,13.3,21.554,21.554,0,0,0,7.77,8.87,20.06,20.06,0,0,0,10.972,3.118,18.9,18.9,0,0,0,9.087-2.1A15.287,15.287,0,0,0,455.315,325v7.021h15.021V267.033H455.315v22.743a16.114,16.114,0,0,0-6.284-5.45,19.366,19.366,0,0,0-8.822-2.018,20.329,20.329,0,0,0-10.972,3.069,21.309,21.309,0,0,0-7.77,8.785,29.3,29.3,0,0,0-2.852,13.269M265.374,282.5a18.67,18.67,0,0,0-9.571,2.55,19.746,19.746,0,0,0-6.936,6.586,17.05,17.05,0,0,0-6.8-6.767,20.268,20.268,0,0,0-9.885-2.368,18.781,18.781,0,0,0-8.338,1.8,16.041,16.041,0,0,0-5.97,4.87v-6.151H202.85v49h15.021v-26.61q0-4.749,2.5-7.335a9.121,9.121,0,0,1,6.888-2.586,9.213,9.213,0,0,1,6.9,2.586q2.5,2.592,2.5,7.335v26.61h14.924v-26.61q0-4.749,2.5-7.335a10.466,10.466,0,0,1,13.776,0q2.5,2.592,2.5,7.335v26.61h14.924V303.395q0-9.843-5.4-15.371-5.365-5.529-14.513-5.523" transform="translate(-202.85 -261.68)" fill="#2d565b"/>
      </g>
    </g>
    <g id="Gruppe_68" data-name="Gruppe 68" transform="translate(296.118 282.041)">
      <g id="Gruppe_65" data-name="Gruppe 65" clip-path="url(#clip-path)">
        <g id="Gruppe_64" data-name="Gruppe 64" transform="translate(453.632 -137.386)" clip-path="url(#clip-path-2)">
          <g id="Gruppe_61" data-name="Gruppe 61" transform="translate(-127.151 -216.26)" clip-path="url(#clip-path-3)">
            <path id="Pfad_26" data-name="Pfad 26" d="M721.883,23.359V20.012a7.251,7.251,0,0,1,1.716-5.16,6.749,6.749,0,0,1,9.256,0,7.271,7.271,0,0,1,1.716,5.16v3.347h10.09V18.647c0-4.4-1.16-7.843-3.468-10.356A12.032,12.032,0,0,0,731.9,4.52,13.1,13.1,0,0,0,726.028,5.8a10.779,10.779,0,0,0-4.157,3.468V4.883H711.72V23.359Z" transform="translate(-516.535 32.808)" fill="#004e6f"/>
          </g>
          <g id="Gruppe_62" data-name="Gruppe 62" transform="translate(-127.151 -216.26)" clip-path="url(#clip-path-3)">
            <path id="Pfad_27" data-name="Pfad 27" d="M686.027,23.3c-.012-.169-.036-.314-.036-.5V4.82H675.9V23.3Z" transform="translate(-524.001 32.871)" fill="#004e6f"/>
          </g>
          <g id="Gruppe_63" data-name="Gruppe 63" transform="translate(-127.151 -216.26)" clip-path="url(#clip-path-3)">
            <path id="Pfad_28" data-name="Pfad 28" d="M703.967,23.3V4.82H693.816V22.8c0,.169-.024.326-.036.5Z" transform="translate(-520.274 32.871)" fill="#004e6f"/>
          </g>
        </g>
      </g>
      <g id="Gruppe_67" data-name="Gruppe 67" clip-path="url(#clip-path)">
        <g id="Gruppe_66" data-name="Gruppe 66" transform="translate(453.632 -137.386)" clip-path="url(#clip-path-2)">
          <path id="Pfad_29" data-name="Pfad 29" d="M742.076,32.53a28.259,28.259,0,0,1-56.482,0H676.35a37.767,37.767,0,0,0,75.5,0Z" transform="translate(-651.058 -177.614)" fill="#e84610"/>
        </g>
      </g>
    </g>
    <g id="Gruppe_89" data-name="Gruppe 89" transform="translate(291.285 282.041)">
      <g id="Gruppe_69" data-name="Gruppe 69" transform="translate(0 0)" clip-path="url(#clip-path)">
        <path id="Pfad_30" data-name="Pfad 30" d="M284.674,27.89V1.28H269.75V29.908c0,.822.036,1.631.1,2.417h15.492a13.857,13.857,0,0,1-.665-4.435" transform="translate(-277.339 -321.513)" fill="#2d565b"/>
      </g>
      <g id="Gruppe_70" data-name="Gruppe 70" transform="translate(0 0)" clip-path="url(#clip-path)">
        <path id="Pfad_31" data-name="Pfad 31" d="M312.865,1.28H297.845V27.89a13.531,13.531,0,0,1-.665,4.435h15.685Z" transform="translate(-271.622 -321.513)" fill="#2d565b"/>
      </g>
      <g id="Gruppe_71" data-name="Gruppe 71" transform="translate(0 0)" clip-path="url(#clip-path)">
        <path id="Pfad_32" data-name="Pfad 32" d="M336.291,23.762q0-4.912,2.55-7.637a9.993,9.993,0,0,1,13.7,0c1.692,1.813,2.55,4.362,2.55,7.637v8.652h14.924V21.744q0-9.752-5.136-15.323C361.462,2.7,356.87.85,351.142.85a19.609,19.609,0,0,0-8.7,1.885,15.878,15.878,0,0,0-6.151,5.136V1.37H321.27V32.414h15.021Z" transform="translate(-266.601 -321.603)" fill="#2d565b"/>
      </g>
      <g id="Gruppe_72" data-name="Gruppe 72" transform="translate(0 0)" clip-path="url(#clip-path)">
        <path id="Pfad_33" data-name="Pfad 33" d="M278.772,42.945a19.364,19.364,0,0,0,9.921,2.5,18.909,18.909,0,0,0,8.652-1.982,16.542,16.542,0,0,0,6.187-5.22v6.671h15.021V26.97H302.88a8.653,8.653,0,0,1-1.885,3.2,9.056,9.056,0,0,1-6.936,2.719,8.956,8.956,0,0,1-6.852-2.719,8.751,8.751,0,0,1-1.885-3.2H269.83a23.278,23.278,0,0,0,2.272,8.737,16.861,16.861,0,0,0,6.671,7.238" transform="translate(-277.322 -316.159)" fill="#2d565b"/>
      </g>
      <g id="Gruppe_73" data-name="Gruppe 73" transform="translate(0 0)" clip-path="url(#clip-path)">
        <rect id="Rechteck_46" data-name="Rechteck 46" width="14.924" height="17.957" transform="translate(88.481 -289.189)" fill="#2d565b"/>
      </g>
      <g id="Gruppe_74" data-name="Gruppe 74" transform="translate(0 0)" clip-path="url(#clip-path)">
        <rect id="Rechteck_48" data-name="Rechteck 48" width="15.021" height="17.957" transform="translate(54.669 -289.189)" fill="#2d565b"/>
      </g>
      <g id="Gruppe_75" data-name="Gruppe 75" transform="translate(0 0)" clip-path="url(#clip-path)">
        <path id="Pfad_34" data-name="Pfad 34" d="M348.531,308.141v-6.525q0-4.912,2.55-7.637a9.993,9.993,0,0,1,13.7,0c1.692,1.813,2.55,4.362,2.55,7.637v6.525h14.924v-8.556q0-9.752-5.136-15.323c-3.42-3.722-8.012-5.583-13.74-5.583a19.608,19.608,0,0,0-8.7,1.885,15.88,15.88,0,0,0-6.151,5.136v-6.5H333.51v28.93h15.021Z" transform="translate(-264.05 -263.695)" fill="#2d565b"/>
      </g>
      <g id="Gruppe_76" data-name="Gruppe 76" transform="translate(0 0)" clip-path="url(#clip-path)">
        <path id="Pfad_35" data-name="Pfad 35" d="M325.008,308.05V279.12H309.987v26.61a15.677,15.677,0,0,1-.157,2.32Z" transform="translate(-268.985 -263.604)" fill="#2d565b"/>
      </g>
      <g id="Gruppe_77" data-name="Gruppe 77" transform="translate(0 0)" clip-path="url(#clip-path)">
        <path id="Pfad_36" data-name="Pfad 36" d="M297.071,308.05a15.677,15.677,0,0,1-.157-2.32V279.12H281.99v28.628c0,.1.012.193.012.29h15.069Z" transform="translate(-274.788 -263.604)" fill="#2d565b"/>
      </g>
      <g id="Gruppe_78" data-name="Gruppe 78" transform="translate(0 0)" clip-path="url(#clip-path)">
        <path id="Pfad_37" data-name="Pfad 37" d="M377.7,320.64c-.773,20.531-18.694,36.954-40.688,36.954s-39.9-16.422-40.688-36.954H283.01c.834,27.613,24.857,49.763,54.391,49.763s53.558-22.15,54.391-49.763Z" transform="translate(-274.575 -254.95)" fill="#e84610"/>
      </g>
      <g id="Gruppe_79" data-name="Gruppe 79" transform="translate(0 0)" clip-path="url(#clip-path)">
        <path id="Pfad_38" data-name="Pfad 38" d="M508.212,31.63q0,4.912-2.55,7.637a9.056,9.056,0,0,1-6.936,2.719,8.956,8.956,0,0,1-6.852-2.719q-2.556-2.719-2.55-7.637V5.02H474.4V33.648A24.63,24.63,0,0,0,476.769,44.8a16.962,16.962,0,0,0,6.671,7.251,19.365,19.365,0,0,0,9.921,2.5,18.756,18.756,0,0,0,8.652-1.982,16.448,16.448,0,0,0,6.187-5.22v6.671h15.021v-49H508.2V31.63Z" transform="translate(-234.684 -320.734)" fill="#2d565b"/>
      </g>
      <g id="Gruppe_80" data-name="Gruppe 80" transform="translate(0 0)" clip-path="url(#clip-path)">
        <path id="Pfad_39" data-name="Pfad 39" d="M569.532,10.161c-3.42-3.722-8.012-5.571-13.74-5.571a19.609,19.609,0,0,0-8.7,1.885,15.879,15.879,0,0,0-6.151,5.136V5.11H525.92v49h15.021V27.5q0-4.912,2.55-7.637a9.993,9.993,0,0,1,13.7,0c1.692,1.813,2.55,4.362,2.55,7.637v26.61h14.924V25.484q0-9.752-5.136-15.323" transform="translate(-223.946 -320.823)" fill="#2d565b"/>
      </g>
      <g id="Gruppe_81" data-name="Gruppe 81" transform="translate(0 0)" clip-path="url(#clip-path)">
        <path id="Pfad_40" data-name="Pfad 40" d="M655.3,186.991v-6.526q0-4.912,2.55-7.637a9.993,9.993,0,0,1,13.7,0c1.692,1.813,2.55,4.362,2.55,7.637v6.526h14.924v-8.556q0-9.752-5.136-15.323c-3.42-3.722-8.012-5.583-13.74-5.583a19.609,19.609,0,0,0-8.7,1.885,15.881,15.881,0,0,0-6.151,5.136v-6.5H640.28v28.93H655.3Z" transform="translate(-200.11 -288.946)" fill="#e84610"/>
      </g>
      <g id="Gruppe_82" data-name="Gruppe 82" transform="translate(0 0)" clip-path="url(#clip-path)">
        <path id="Pfad_41" data-name="Pfad 41" d="M631.788,186.9V157.97H616.767v26.61a15.792,15.792,0,0,1-.157,2.32Z" transform="translate(-205.044 -288.855)" fill="#e84610"/>
      </g>
      <g id="Gruppe_83" data-name="Gruppe 83" transform="translate(0 0)" clip-path="url(#clip-path)">
        <path id="Pfad_42" data-name="Pfad 42" d="M603.853,186.9a15.652,15.652,0,0,1-.157-2.32V157.97H588.76V186.6c0,.1.012.193.012.29h15.081Z" transform="translate(-210.849 -288.855)" fill="#e84610"/>
      </g>
      <g id="Gruppe_84" data-name="Gruppe 84" transform="translate(0 0)" clip-path="url(#clip-path)">
        <path id="Pfad_43" data-name="Pfad 43" d="M684.472,199.49c-.773,20.531-18.694,36.954-40.688,36.954s-39.9-16.423-40.688-36.954H589.78c.834,27.613,24.857,49.763,54.391,49.763s53.558-22.15,54.391-49.763h-14.09Z" transform="translate(-210.636 -280.201)" fill="#e84610"/>
      </g>
      <g id="Gruppe_85" data-name="Gruppe 85" transform="translate(0 0)" clip-path="url(#clip-path)">
        <path id="Pfad_44" data-name="Pfad 44" d="M568.841,538.931v-6.526q0-4.912,2.55-7.637a9.992,9.992,0,0,1,13.7,0c1.692,1.813,2.55,4.362,2.55,7.637v6.526h14.924v-8.556q0-9.752-5.136-15.323c-3.42-3.722-8.012-5.583-13.74-5.583a19.645,19.645,0,0,0-8.7,1.885,15.877,15.877,0,0,0-6.151,5.136v-6.5H553.82v28.93h15.021Z" transform="translate(-218.131 -215.593)" fill="#fff"/>
      </g>
      <g id="Gruppe_86" data-name="Gruppe 86" transform="translate(0 0)" clip-path="url(#clip-path)">
        <path id="Pfad_45" data-name="Pfad 45" d="M545.328,538.84V509.91H530.307v26.61a15.784,15.784,0,0,1-.157,2.32Z" transform="translate(-223.064 -215.501)" fill="#fff"/>
      </g>
      <g id="Gruppe_87" data-name="Gruppe 87" transform="translate(0 0)" clip-path="url(#clip-path)">
        <path id="Pfad_46" data-name="Pfad 46" d="M517.393,538.84a15.677,15.677,0,0,1-.157-2.32V509.91H502.3v28.628c0,.1.012.193.012.29h15.081Z" transform="translate(-228.869 -215.501)" fill="#fff"/>
      </g>
      <g id="Gruppe_88" data-name="Gruppe 88" transform="translate(0 0)" clip-path="url(#clip-path)">
        <path id="Pfad_47" data-name="Pfad 47" d="M598.012,551.43c-.773,20.531-18.694,36.954-40.688,36.954s-39.9-16.423-40.688-36.954H503.32c.834,27.612,24.857,49.775,54.391,49.775s53.557-22.15,54.391-49.775Z" transform="translate(-228.656 -206.847)" fill="#fff"/>
      </g>
    </g>
  </g>
</svg>
